# This file uses centimeters as units for non-parametric coordinates.

mtllib New Stairs Export.mtl
g default
v 2.576742 0.380677 3.548058
v 9.780074 0.380677 3.548058
v 9.727208 6.772001 3.548058
v 9.780074 6.772001 3.548058
v 9.727208 6.772001 2.275704
v 9.780074 6.772001 2.275704
v 2.576742 0.380677 2.275704
v 9.780074 0.380677 2.275704
vt 0.375000 0.000000
vt 0.625000 0.000000
vt 0.375000 0.250000
vt 0.625000 0.250000
vt 0.375000 0.500000
vt 0.625000 0.500000
vt 0.375000 0.750000
vt 0.625000 0.750000
vt 0.375000 1.000000
vt 0.625000 1.000000
vt 0.875000 0.000000
vt 0.875000 0.250000
vt 0.125000 0.000000
vt 0.125000 0.250000
vn 0.000000 0.000000 1.000000
vn 0.000000 0.000000 1.000000
vn 0.000000 0.000000 1.000000
vn 0.000000 0.000000 1.000000
vn 0.000000 1.000000 0.000000
vn 0.000000 1.000000 0.000000
vn 0.000000 1.000000 0.000000
vn 0.000000 1.000000 0.000000
vn 0.000000 0.000000 -1.000000
vn 0.000000 0.000000 -1.000000
vn 0.000000 0.000000 -1.000000
vn 0.000000 0.000000 -1.000000
vn 0.000000 -1.000000 0.000000
vn 0.000000 -1.000000 0.000000
vn 0.000000 -1.000000 0.000000
vn 0.000000 -1.000000 0.000000
vn 1.000000 0.000000 0.000000
vn 1.000000 0.000000 0.000000
vn 1.000000 0.000000 0.000000
vn 1.000000 0.000000 0.000000
vn -0.666420 0.745576 0.000000
vn -0.666420 0.745576 0.000000
vn -0.666420 0.745576 0.000000
vn -0.666420 0.745576 0.000000
s off
g LeftSideOfStairs STAIRS
usemtl standardSurface2SG
f 1/1/1 2/2/2 4/4/3 3/3/4
f 3/3/5 4/4/6 6/6/7 5/5/8
f 5/5/9 6/6/10 8/8/11 7/7/12
f 7/7/13 8/8/14 2/10/15 1/9/16
f 2/2/17 8/11/18 6/12/19 4/4/20
f 7/13/21 1/1/22 3/3/23 5/14/24
g default
v 2.576742 0.380677 -1.824180
v 9.780074 0.380677 -1.824180
v 9.727208 6.772001 -1.824180
v 9.780074 6.772001 -1.824180
v 9.727208 6.772001 -3.096535
v 9.780074 6.772001 -3.096535
v 2.576742 0.380677 -3.096535
v 9.780074 0.380677 -3.096535
vt 0.375000 0.000000
vt 0.625000 0.000000
vt 0.375000 0.250000
vt 0.625000 0.250000
vt 0.375000 0.500000
vt 0.625000 0.500000
vt 0.375000 0.750000
vt 0.625000 0.750000
vt 0.375000 1.000000
vt 0.625000 1.000000
vt 0.875000 0.000000
vt 0.875000 0.250000
vt 0.125000 0.000000
vt 0.125000 0.250000
vn 0.000000 0.000000 1.000000
vn 0.000000 0.000000 1.000000
vn 0.000000 0.000000 1.000000
vn 0.000000 0.000000 1.000000
vn 0.000000 1.000000 0.000000
vn 0.000000 1.000000 0.000000
vn 0.000000 1.000000 0.000000
vn 0.000000 1.000000 0.000000
vn 0.000000 0.000000 -1.000000
vn 0.000000 0.000000 -1.000000
vn 0.000000 0.000000 -1.000000
vn 0.000000 0.000000 -1.000000
vn 0.000000 -1.000000 0.000000
vn 0.000000 -1.000000 0.000000
vn 0.000000 -1.000000 0.000000
vn 0.000000 -1.000000 0.000000
vn 1.000000 0.000000 0.000000
vn 1.000000 0.000000 0.000000
vn 1.000000 0.000000 0.000000
vn 1.000000 0.000000 0.000000
vn -0.666420 0.745576 0.000000
vn -0.666420 0.745576 0.000000
vn -0.666420 0.745576 0.000000
vn -0.666420 0.745576 0.000000
s off
g STAIRS RightSideOfStairs
usemtl standardSurface2SG
f 9/15/25 10/16/26 12/18/27 11/17/28
f 11/17/29 12/18/30 14/20/31 13/19/32
f 13/19/33 14/20/34 16/22/35 15/21/36
f 15/21/37 16/22/38 10/24/39 9/23/40
f 10/16/41 16/25/42 14/26/43 12/18/44
f 15/27/45 9/15/46 11/17/47 13/28/48
g default
v 3.577585 0.081364 2.320786
v 4.577585 0.081364 2.320786
v 3.577585 1.081364 2.320786
v 4.577585 1.081364 2.320786
v 3.577585 1.081364 -1.913320
v 4.577585 1.081364 -1.913320
v 3.577585 0.081364 -1.913320
v 4.577585 0.081364 -1.913320
v 5.660027 0.081364 -1.913320
v 5.660027 0.081364 2.320786
v 5.660027 1.081364 -1.913320
v 5.660027 1.081364 2.320786
v 4.577585 1.754031 2.320786
v 4.577585 1.754031 -1.913320
v 5.660027 1.754031 2.320786
v 5.660027 1.754031 -1.913320
v 6.646185 0.081364 -1.913320
v 6.646185 0.081364 2.320786
v 6.646185 1.081364 -1.913320
v 6.646185 1.081364 2.320786
v 5.660027 2.478733 2.320786
v 5.660027 2.478733 -1.913320
v 6.646185 2.478733 2.320786
v 6.646185 2.478733 -1.913320
v 7.654651 0.081364 -1.913320
v 7.654651 0.081364 2.320786
v 7.654651 1.081364 -1.913320
v 7.654651 1.081364 2.320786
v 6.646185 3.517088 2.320786
v 6.646185 3.517088 -1.913320
v 7.654651 3.517088 2.320786
v 7.654651 3.517088 -1.913320
v 8.641172 0.081364 -1.913320
v 8.641172 0.081364 2.320786
v 8.641172 1.081364 -1.913320
v 8.641172 1.081364 2.320786
v 7.654651 4.447432 2.320786
v 7.654651 4.447432 -1.913320
v 8.641172 4.447432 2.320786
v 8.641172 4.447432 -1.913320
v 9.951101 0.081364 -1.913320
v 9.951101 0.081364 2.320786
v 9.951101 1.081364 -1.913320
v 9.951101 1.081364 2.320786
v 8.641172 5.347215 2.320786
v 8.641172 5.347215 -1.913320
v 9.951101 5.347215 2.320786
v 9.951101 5.347215 -1.913320
vt 0.375000 0.000000
vt 0.625000 0.000000
vt 0.375000 0.250000
vt 0.625000 0.250000
vt 0.375000 0.500000
vt 0.625000 0.500000
vt 0.375000 0.750000
vt 0.625000 0.750000
vt 0.375000 1.000000
vt 0.625000 1.000000
vt 0.875000 0.000000
vt 0.875000 0.250000
vt 0.125000 0.000000
vt 0.125000 0.250000
vt 0.625000 0.000000
vt 0.875000 0.000000
vt 0.875000 0.250000
vt 0.625000 0.250000
vt 0.875000 0.250000
vt 0.625000 0.250000
vt 0.625000 0.250000
vt 0.875000 0.250000
vt 0.625000 0.000000
vt 0.875000 0.000000
vt 0.875000 0.250000
vt 0.625000 0.250000
vt 0.875000 0.250000
vt 0.625000 0.250000
vt 0.625000 0.250000
vt 0.875000 0.250000
vt 0.625000 0.000000
vt 0.875000 0.000000
vt 0.875000 0.250000
vt 0.625000 0.250000
vt 0.875000 0.250000
vt 0.625000 0.250000
vt 0.625000 0.250000
vt 0.875000 0.250000
vt 0.625000 0.000000
vt 0.875000 0.000000
vt 0.875000 0.250000
vt 0.625000 0.250000
vt 0.875000 0.250000
vt 0.625000 0.250000
vt 0.625000 0.250000
vt 0.875000 0.250000
vt 0.625000 0.000000
vt 0.875000 0.000000
vt 0.875000 0.250000
vt 0.625000 0.250000
vt 0.875000 0.250000
vt 0.625000 0.250000
vt 0.625000 0.250000
vt 0.875000 0.250000
vn 0.000000 0.000000 1.000000
vn 0.000000 0.000000 1.000000
vn 0.000000 0.000000 1.000000
vn 0.000000 0.000000 1.000000
vn 0.000000 1.000000 0.000000
vn 0.000000 1.000000 0.000000
vn 0.000000 1.000000 0.000000
vn 0.000000 1.000000 0.000000
vn 0.000000 0.000000 -1.000000
vn 0.000000 0.000000 -1.000000
vn 0.000000 0.000000 -1.000000
vn 0.000000 0.000000 -1.000000
vn 0.000000 -1.000000 0.000000
vn 0.000000 -1.000000 0.000000
vn 0.000000 -1.000000 0.000000
vn 0.000000 -1.000000 0.000000
vn 1.000000 0.000000 0.000000
vn 1.000000 0.000000 0.000000
vn 1.000000 0.000000 0.000000
vn 1.000000 0.000000 0.000000
vn -1.000000 0.000000 0.000000
vn -1.000000 0.000000 0.000000
vn -1.000000 0.000000 0.000000
vn -1.000000 0.000000 0.000000
vn 0.000000 -1.000000 0.000000
vn 0.000000 -1.000000 0.000000
vn 0.000000 0.000000 -1.000000
vn 0.000000 0.000000 -1.000000
vn 0.000000 1.000000 0.000000
vn 0.000000 1.000000 0.000000
vn 0.000000 1.000000 0.000000
vn 0.000000 1.000000 0.000000
vn 0.000000 0.000000 1.000000
vn 0.000000 0.000000 1.000000
vn -1.000000 0.000000 0.000000
vn -1.000000 0.000000 0.000000
vn -1.000000 0.000000 0.000000
vn -1.000000 0.000000 0.000000
vn 0.000000 0.000000 1.000000
vn 0.000000 0.000000 1.000000
vn 1.000000 0.000000 0.000000
vn 1.000000 0.000000 0.000000
vn 1.000000 0.000000 0.000000
vn 1.000000 0.000000 0.000000
vn 0.000000 0.000000 -1.000000
vn 0.000000 0.000000 -1.000000
vn 0.000000 -1.000000 0.000000
vn 0.000000 -1.000000 0.000000
vn 0.000000 0.000000 -1.000000
vn 0.000000 0.000000 -1.000000
vn 0.000000 1.000000 0.000000
vn 0.000000 1.000000 0.000000
vn 0.000000 1.000000 0.000000
vn 0.000000 1.000000 0.000000
vn 0.000000 0.000000 1.000000
vn 0.000000 0.000000 1.000000
vn -1.000000 0.000000 0.000000
vn -1.000000 0.000000 0.000000
vn -1.000000 0.000000 0.000000
vn -1.000000 0.000000 0.000000
vn 0.000000 0.000000 1.000000
vn 0.000000 0.000000 1.000000
vn 1.000000 0.000000 0.000000
vn 1.000000 0.000000 0.000000
vn 1.000000 0.000000 0.000000
vn 1.000000 0.000000 0.000000
vn 0.000000 0.000000 -1.000000
vn 0.000000 0.000000 -1.000000
vn 0.000000 -1.000000 0.000000
vn 0.000000 -1.000000 0.000000
vn 0.000000 0.000000 -1.000000
vn 0.000000 0.000000 -1.000000
vn 0.000000 1.000000 0.000000
vn 0.000000 1.000000 0.000000
vn 0.000000 1.000000 0.000000
vn 0.000000 1.000000 0.000000
vn 0.000000 0.000000 1.000000
vn 0.000000 0.000000 1.000000
vn -1.000000 0.000000 0.000000
vn -1.000000 0.000000 0.000000
vn -1.000000 0.000000 0.000000
vn -1.000000 0.000000 0.000000
vn 0.000000 0.000000 1.000000
vn 0.000000 0.000000 1.000000
vn 1.000000 0.000000 0.000000
vn 1.000000 0.000000 0.000000
vn 1.000000 0.000000 0.000000
vn 1.000000 0.000000 0.000000
vn 0.000000 0.000000 -1.000000
vn 0.000000 0.000000 -1.000000
vn 0.000000 -1.000000 0.000000
vn 0.000000 -1.000000 0.000000
vn 0.000000 0.000000 -1.000000
vn 0.000000 0.000000 -1.000000
vn 0.000000 1.000000 0.000000
vn 0.000000 1.000000 0.000000
vn 0.000000 1.000000 0.000000
vn 0.000000 1.000000 0.000000
vn 0.000000 0.000000 1.000000
vn 0.000000 0.000000 1.000000
vn -1.000000 0.000000 0.000000
vn -1.000000 0.000000 0.000000
vn -1.000000 0.000000 0.000000
vn -1.000000 0.000000 0.000000
vn 0.000000 0.000000 1.000000
vn 0.000000 0.000000 1.000000
vn 1.000000 0.000000 0.000000
vn 1.000000 0.000000 0.000000
vn 1.000000 0.000000 0.000000
vn 1.000000 0.000000 0.000000
vn 0.000000 0.000000 -1.000000
vn 0.000000 0.000000 -1.000000
vn 0.000000 -1.000000 0.000000
vn 0.000000 -1.000000 0.000000
vn 0.000000 0.000000 -1.000000
vn 0.000000 0.000000 -1.000000
vn 0.000000 1.000000 0.000000
vn 0.000000 1.000000 0.000000
vn 0.000000 1.000000 0.000000
vn 0.000000 1.000000 0.000000
vn 0.000000 0.000000 1.000000
vn 0.000000 0.000000 1.000000
vn -1.000000 0.000000 0.000000
vn -1.000000 0.000000 0.000000
vn -1.000000 0.000000 0.000000
vn -1.000000 0.000000 0.000000
vn 0.000000 0.000000 1.000000
vn 0.000000 0.000000 1.000000
vn 1.000000 0.000000 0.000000
vn 1.000000 0.000000 0.000000
vn 0.000000 0.000000 -1.000000
vn 0.000000 0.000000 -1.000000
s 1
g STAIRS Stairs
usemtl standardSurface2SG
f 17/29/49 18/30/50 20/32/51 19/31/52
s off
f 19/31/53 20/32/54 22/34/55 21/33/56
s 2
f 21/33/57 22/34/58 24/36/59 23/35/60
s 3
f 23/35/61 24/36/62 18/38/63 17/37/64
s 4
f 58/75/65 57/76/66 59/77/67 60/78/68
s off
f 23/41/69 17/29/70 19/31/71 21/42/72
s 3
f 18/30/63 24/39/62 25/44/73 26/43/74
s 2
f 24/39/59 22/40/58 27/45/75 25/44/76
s off
f 30/47/77 29/48/78 31/49/79 32/50/80
s 1
f 20/32/51 18/30/50 26/43/81 28/46/82
s off
f 22/40/83 20/32/84 29/48/85 30/47/86
s 1
f 20/32/51 28/46/82 31/49/87 29/48/88
s off
f 28/46/89 27/45/90 32/50/91 31/49/92
s 2
f 27/45/75 22/40/58 30/47/93 32/50/94
s 3
f 26/43/74 25/44/73 33/52/95 34/51/96
s 2
f 25/44/76 27/45/75 35/53/97 33/52/98
s off
f 38/55/99 37/56/100 39/57/101 40/58/102
s 1
f 28/46/82 26/43/81 34/51/103 36/54/104
s off
f 27/45/105 28/46/106 37/56/107 38/55/108
s 1
f 28/46/82 36/54/104 39/57/109 37/56/110
s off
f 36/54/111 35/53/112 40/58/113 39/57/114
s 2
f 35/53/97 27/45/75 38/55/115 40/58/116
s 3
f 34/51/96 33/52/95 41/60/117 42/59/118
s 2
f 33/52/98 35/53/97 43/61/119 41/60/120
s off
f 46/63/121 45/64/122 47/65/123 48/66/124
s 1
f 36/54/104 34/51/103 42/59/125 44/62/126
s off
f 35/53/127 36/54/128 45/64/129 46/63/130
s 1
f 36/54/104 44/62/126 47/65/131 45/64/132
s off
f 44/62/133 43/61/134 48/66/135 47/65/136
s 2
f 43/61/119 35/53/97 46/63/137 48/66/138
s 3
f 42/59/118 41/60/117 49/68/139 50/67/140
s 2
f 41/60/120 43/61/119 51/69/141 49/68/142
s off
f 54/71/143 53/72/144 55/73/145 56/74/146
s 1
f 44/62/126 42/59/125 50/67/147 52/70/148
s off
f 43/61/149 44/62/150 53/72/151 54/71/152
s 1
f 44/62/126 52/70/148 55/73/153 53/72/154
s off
f 52/70/155 51/69/156 56/74/157 55/73/158
s 2
f 51/69/141 43/61/119 54/71/159 56/74/160
s 3
f 50/67/140 49/68/139 57/76/161 58/75/162
s 2
f 49/68/142 51/69/141 59/77/163 57/76/164
s off
f 62/79/165 61/80/166 63/81/167 64/82/168
s 1
f 52/70/148 50/67/147 58/75/169 60/78/170
s off
f 51/69/171 52/70/172 61/80/173 62/79/174
s 1
f 52/70/148 60/78/170 63/81/175 61/80/176
s 4
f 60/78/68 59/77/67 64/82/177 63/81/178
s 2
f 59/77/163 51/69/141 62/79/179 64/82/180
